<svg width="100" height="40" viewBox="0 0 100 40" fill="none" xmlns="http://www.w3.org/2000/svg">
<path d="M26.9412 21.8117C27.4767 21.9772 28.6469 22.3389 28.8329 21.4639C29.0235 20.5693 27.8886 20.2712 27.3349 20.1258C27.273 20.1095 27.2184 20.0952 27.1736 20.0821L26.8133 21.7728C26.85 21.7835 26.8931 21.7968 26.9412 21.8117Z" fill="#FFD02A"/>
<path d="M27.4461 19.3412C27.8925 19.4806 28.8663 19.7847 29.0359 18.9895C29.2091 18.176 28.2627 17.9308 27.8005 17.8111C27.7485 17.7976 27.7026 17.7857 27.6652 17.7748L27.3385 19.3082C27.3693 19.3172 27.4056 19.3285 27.4461 19.3412Z" fill="#FFD02A"/>
<path fill-rule="evenodd" clip-rule="evenodd" d="M25.8849 26.7904C29.338 27.7256 32.8351 25.4434 33.6959 21.6934C34.5567 17.9432 32.4556 14.1444 29.0027 13.2095C25.5505 12.2745 22.0535 14.557 21.193 18.3074C20.3318 22.0572 22.4331 25.8555 25.8849 26.7904ZM29.0168 17.2371C29.8453 17.5711 30.4512 18.0718 30.3322 19.0033C30.246 19.6851 29.9231 20.0152 29.4943 20.1309C30.0831 20.4896 30.3826 21.0398 30.0973 21.9935C29.7431 23.178 28.9017 23.278 27.7827 23.0302L27.5112 24.3039L26.855 24.1125L27.123 22.8558C26.9529 22.8064 26.7791 22.7539 26.6001 22.697L26.3311 23.9596L25.6757 23.7682L25.9472 22.492C25.886 22.4737 25.8243 22.4549 25.7623 22.4359C25.669 22.4075 25.5748 22.3787 25.4794 22.3507L24.6255 22.1016L24.9513 21.2224C24.9513 21.2224 25.4348 21.3729 25.4282 21.3618C25.614 21.4156 25.6964 21.2738 25.7289 21.1793L26.1581 19.1658C26.1741 19.1703 26.1899 19.1749 26.2051 19.1794C26.2127 19.1816 26.2201 19.1838 26.2274 19.1859C26.2012 19.1737 26.1775 19.1658 26.1592 19.1603L26.4653 17.7229C26.4733 17.5597 26.4253 17.3539 26.1595 17.2762C26.1698 17.2682 25.683 17.1376 25.683 17.1376L25.8575 16.3173L26.7625 16.5817L26.7617 16.5857C26.8978 16.6253 27.038 16.6629 27.1807 16.7009L27.4497 15.4397L28.1055 15.6311L27.842 16.8676C28.018 16.9147 28.1952 16.9621 28.3677 17.0124L28.6294 15.784L29.2856 15.9754L29.0168 17.2371Z" fill="#FFD02A"/>
<path fill-rule="evenodd" clip-rule="evenodd" d="M39.2421 17.2356C39.7271 17.2356 40.1461 17.3373 40.4982 17.5371C40.852 17.7387 41.1439 18.0104 41.3781 18.3521C41.6091 18.6955 41.781 19.0969 41.8921 19.557C42.0023 20.0183 42.0577 20.5142 42.0577 21.0451C42.0577 21.8606 41.93 22.631 41.6723 23.3573C41.4145 24.0846 41.0649 24.7154 40.62 25.2536C40.1756 25.791 39.6508 26.2147 39.0456 26.5278C38.4414 26.841 37.7845 26.9976 37.0791 26.9976C36.9879 26.9976 36.8276 26.9946 36.601 26.9891C36.3745 26.9836 36.1142 26.9563 35.8226 26.9101C35.5292 26.8622 35.219 26.7913 34.8913 26.6964C34.5639 26.6032 34.2529 26.4726 33.96 26.3068L36.5788 13.4279L38.9243 13.0024L37.9867 17.5727C38.1874 17.4668 38.3896 17.3848 38.5915 17.3251C38.7935 17.2662 39.0103 17.2356 39.2421 17.2356ZM37.2746 24.8198C37.6278 24.8198 37.9607 24.7181 38.2734 24.5184C38.587 24.3184 38.8576 24.0485 39.0843 23.7123C39.311 23.3745 39.4904 22.9941 39.6213 22.5691C39.7521 22.1441 39.8183 21.7007 39.8183 21.2393C39.8183 20.6726 39.7373 20.2305 39.576 19.9109C39.4148 19.5926 39.1163 19.4325 38.6829 19.4325C38.5408 19.4325 38.3579 19.4642 38.131 19.5209C37.9033 19.581 37.6996 19.7059 37.517 19.8938L36.5186 24.7474C36.5788 24.7598 36.6321 24.7717 36.6775 24.7828C36.722 24.7949 36.7711 24.8034 36.8201 24.8093C36.8719 24.8161 36.9311 24.8196 37.0027 24.8196L37.2746 24.8198Z" fill="white"/>
<path d="M44.49 26.7505H42.2497L44.1416 17.4326H46.3973L44.49 26.7505Z" fill="white"/>
<path d="M45.5802 16.2973C45.2675 16.2973 44.984 16.1884 44.7324 15.9701C44.4788 15.7531 44.3532 15.419 44.3532 14.9689C44.3532 14.7212 44.3962 14.4889 44.4814 14.2697C44.5679 14.051 44.681 13.8626 44.8227 13.7025C44.9641 13.5437 45.1281 13.4168 45.3142 13.3212C45.5015 13.2272 45.7007 13.1802 45.913 13.1802C46.2255 13.1802 46.5075 13.2891 46.76 13.5074C47.0116 13.7268 47.1381 14.0608 47.1381 14.5086C47.1381 14.7571 47.0953 14.9903 47.0094 15.209C46.9239 15.4278 46.8109 15.6161 46.6692 15.7762C46.5288 15.9353 46.3634 16.0617 46.1777 16.1564C45.9902 16.252 45.7917 16.2973 45.5802 16.2973Z" fill="white"/>
<path d="M50.7069 14.6866L48.3604 15.1121L46.8763 22.446C46.7554 23.0484 46.6853 23.6204 46.6645 24.1647C46.6445 24.7076 46.7161 25.1895 46.8763 25.6075C47.0387 26.0271 47.3101 26.3585 47.694 26.6011C48.0784 26.8419 48.618 26.9629 49.314 26.9629C49.798 26.9629 50.2169 26.9169 50.5707 26.8216C50.9239 26.7275 51.2517 26.6157 51.5545 26.4858L51.3874 24.4655C51.1553 24.561 50.926 24.6341 50.6996 24.6866C50.472 24.74 50.2365 24.7669 49.9948 24.7669C49.7014 24.7669 49.4777 24.719 49.3215 24.6238C49.1645 24.5302 49.0562 24.3979 48.9961 24.2261C48.9355 24.0549 48.9099 23.8514 48.9209 23.6145C48.9307 23.3787 48.9654 23.125 49.0267 22.8533L49.6921 19.594H52.1899L52.6437 17.4332H50.1307L50.7069 14.6866Z" fill="white"/>
<path d="M52.5451 23.0303C52.5451 22.2277 52.6561 21.4709 52.878 20.7624C53.0994 20.0532 53.4185 19.433 53.8324 18.9008C54.2449 18.3712 54.7475 17.9517 55.339 17.6437C55.9277 17.3374 56.5869 17.183 57.3134 17.183C57.7681 17.183 58.1742 17.2333 58.5315 17.3342C58.8904 17.4359 59.215 17.5673 59.5086 17.7323L58.736 19.7885C58.5342 19.6927 58.3247 19.6082 58.108 19.5317C57.8912 19.4536 57.6266 19.416 57.3136 19.416C56.5658 19.416 55.9746 19.7176 55.5347 20.319C55.0964 20.9207 54.8757 21.7307 54.8757 22.7468C54.8757 23.349 54.9867 23.836 55.2095 24.2085C55.4311 24.581 55.8406 24.7663 56.4351 24.7663C56.7286 24.7663 57.0117 24.7304 57.2829 24.6604C57.5561 24.5895 57.7974 24.5003 58.0099 24.3949L58.1772 26.5027C57.8939 26.6313 57.5814 26.7475 57.2386 26.8492C56.8951 26.9474 56.4862 26.9984 56.012 26.9984C55.3861 26.9984 54.8562 26.8912 54.4228 26.6801C53.9892 26.4657 53.631 26.1811 53.3487 25.8206C53.065 25.4593 52.8613 25.0373 52.7354 24.553C52.6094 24.0691 52.5451 23.5608 52.5451 23.0303Z" fill="white"/>
<path fill-rule="evenodd" clip-rule="evenodd" d="M61.1043 26.7142C61.4983 26.903 61.9627 26.9984 62.4974 26.9984C63.2342 26.9984 63.8831 26.8177 64.4427 26.4576C65.003 26.0976 65.4695 25.6341 65.8425 25.0677C66.2163 24.5001 66.4994 23.8613 66.6903 23.155C66.8809 22.4452 66.977 21.7356 66.977 21.0279C66.977 20.4616 66.9119 19.9438 66.7802 19.4783C66.6493 19.0111 66.4548 18.6079 66.1987 18.2645C65.9399 17.9228 65.6124 17.6557 65.2149 17.4674C64.8155 17.2786 64.3535 17.183 63.8285 17.183C63.1131 17.183 62.4761 17.3637 61.9224 17.7229C61.368 18.0845 60.8972 18.5482 60.5156 19.1154C60.131 19.6817 59.8403 20.319 59.6445 21.0281C59.4477 21.7358 59.3503 22.4454 59.3503 23.1552C59.3503 23.7211 59.4139 24.2376 59.546 24.7039C59.6781 25.1705 59.871 25.5754 60.1287 25.9171C60.3861 26.2605 60.7115 26.5254 61.1043 26.7142ZM62.74 19.752C62.9914 19.5291 63.285 19.4162 63.6171 19.4162C64.0408 19.4162 64.3339 19.582 64.4954 19.9116C64.657 20.2426 64.7381 20.7042 64.7381 21.2939C64.7381 21.6596 64.695 22.0475 64.6103 22.4541C64.5238 22.8619 64.3946 23.2375 64.2231 23.5791C64.0509 23.9217 63.8388 24.2054 63.588 24.4292C63.3351 24.6545 63.043 24.7665 62.7098 24.7665C62.2857 24.7665 61.9939 24.6007 61.8315 24.271C61.6714 23.9396 61.5899 23.4792 61.5899 22.8879C61.5899 22.5215 61.6319 22.1359 61.7177 21.7279C61.8042 21.3208 61.9323 20.9463 62.105 20.6029C62.2758 20.261 62.4877 19.9775 62.74 19.752Z" fill="white"/>
<path d="M69.4178 26.7505H67.1756L69.0675 17.4326H71.3243L69.4178 26.7505Z" fill="white"/>
<path d="M70.5063 16.2973C70.1938 16.2973 69.9104 16.1884 69.6593 15.9701C69.4069 15.7531 69.2802 15.419 69.2802 14.9689C69.2802 14.7212 69.3238 14.4889 69.4092 14.2697C69.4946 14.051 69.6084 13.8626 69.7501 13.7025C69.8908 13.5437 70.0562 13.4168 70.242 13.3212C70.4281 13.2272 70.6274 13.1802 70.8389 13.1802C71.1522 13.1802 71.4351 13.2891 71.6871 13.5074C71.9392 13.7268 72.0665 14.0608 72.0665 14.5086C72.0665 14.7571 72.0212 14.9903 71.9366 15.209C71.8519 15.4278 71.7381 15.6161 71.597 15.7762C71.4549 15.9353 71.2916 16.0617 71.1054 16.1564C70.9178 16.252 70.7189 16.2973 70.5063 16.2973Z" fill="white"/>
<path d="M73.5049 17.6533C73.2985 17.7294 73.1088 17.7993 72.9388 17.8575L71.1063 26.7506H73.3623L74.8307 19.541C75.1341 19.4701 75.4312 19.4333 75.7234 19.4333C76.0263 19.4333 76.2496 19.5014 76.3975 19.6368C76.5431 19.7744 76.6369 19.952 76.6767 20.169C76.7184 20.3886 76.7204 20.6423 76.6847 20.9302C76.6494 21.2207 76.6016 21.518 76.5407 21.8255L75.5419 26.7508H77.797L78.8275 21.7197C79.1191 20.3267 79.0413 19.2277 78.592 18.4247C78.1423 17.6217 77.3279 17.219 76.1463 17.219C75.7443 17.219 75.3825 17.2395 75.0649 17.2817C74.7474 17.3231 74.4586 17.3765 74.2028 17.4423C73.9441 17.5062 73.7121 17.5772 73.5049 17.6533Z" fill="white"/>
</svg>
