<svg width="100" height="40" viewBox="0 0 100 40" fill="none" xmlns="http://www.w3.org/2000/svg">
<path fill-rule="evenodd" clip-rule="evenodd" d="M78.4975 22.7341C78.8715 23.2029 79.456 23.4841 80.0638 23.4607C80.2274 23.4607 80.4144 23.4372 80.5781 23.4138C80.695 23.3904 80.8352 23.3435 80.9521 23.2966C81.0456 23.2498 81.1391 23.1794 81.2327 23.1091C81.3028 23.0388 81.3729 22.9685 81.4197 22.8982C81.4664 22.8513 81.5132 22.781 81.5599 22.6873L81.7002 23.3904H82.7522V16.3593L81.5366 16.4296V18.0702C81.5366 18.3514 81.5599 18.6561 81.5833 18.9373C81.3028 18.4217 80.7885 18.1639 80.0638 18.1639C79.456 18.1405 78.8715 18.4217 78.4975 18.8905C78.1001 19.4295 77.9131 20.1092 77.9364 20.7889C77.8897 21.4685 78.1001 22.1716 78.4975 22.7341ZM81.5833 20.8826C81.5599 21.9842 81.1625 22.5466 80.3443 22.5466C79.9937 22.5466 79.6664 22.3826 79.456 22.1013C79.2222 21.7263 79.1053 21.2576 79.1287 20.8123C79.1053 20.367 79.2222 19.8983 79.456 19.5233C79.643 19.242 79.9703 19.078 80.3209 19.1014C80.695 19.078 81.0456 19.242 81.256 19.5233C81.4664 19.8045 81.5833 20.2498 81.5833 20.8826Z" fill="white"/>
<path d="M43.3146 23.4606C42.3328 23.4606 41.5379 23.1559 40.9535 22.5231C40.3691 21.8903 40.0885 21.0466 40.0885 19.9451C40.0885 18.9138 40.3925 18.0701 41.0003 17.4373C41.6315 16.8045 42.4964 16.453 43.3848 16.4998C44.0861 16.4764 44.7874 16.6639 45.3952 17.0623L44.9978 18.0232C44.5302 17.7185 43.9692 17.5545 43.4081 17.5311C42.8471 17.5076 42.286 17.7654 41.9354 18.2107C41.5613 18.7263 41.3743 19.3591 41.3977 19.9919C41.3977 20.7654 41.5613 21.3747 41.912 21.82C42.286 22.2653 42.8237 22.4997 43.4081 22.4763C43.9926 22.4763 44.577 22.3356 45.0913 22.0544L45.2549 23.0387C44.6705 23.32 43.9926 23.4841 43.3146 23.4606Z" fill="white"/>
<path fill-rule="evenodd" clip-rule="evenodd" d="M48.4344 23.4604C47.7564 23.4839 47.1019 23.2261 46.6577 22.7339C46.2135 22.1948 45.9797 21.5152 46.0031 20.812C46.0031 19.9917 46.2135 19.3355 46.6577 18.8668C47.0785 18.398 47.6863 18.1637 48.4811 18.1637C49.1591 18.1168 49.8136 18.398 50.2578 18.8902C50.702 19.4293 50.9358 20.1089 50.9124 20.812C50.9358 21.5152 50.702 22.1948 50.2578 22.7339C49.7903 23.2261 49.1123 23.5073 48.4344 23.4604ZM48.4811 22.5464C48.8552 22.5698 49.2058 22.4058 49.4162 22.1011C49.65 21.7027 49.7435 21.2573 49.7201 20.812C49.7435 20.3667 49.6266 19.898 49.3928 19.4996C48.9721 18.984 48.224 18.8902 47.7097 19.3121C47.6395 19.359 47.5694 19.4293 47.5227 19.4996C47.2889 19.898 47.1954 20.3433 47.2188 20.812C47.1954 21.2573 47.3123 21.7027 47.546 22.0776C47.7331 22.3823 48.1071 22.5698 48.4811 22.5464Z" fill="white"/>
<path d="M51.9175 16.4999V17.5311H53.1331V16.4999H51.9175Z" fill="white"/>
<path d="M51.9175 18.2811V23.3669H53.1331V18.2811H51.9175Z" fill="white"/>
<path d="M54.3957 18.2811H55.3775L55.5178 18.9139C55.962 18.4451 56.5931 18.1639 57.2477 18.1405C57.7386 18.0936 58.2296 18.2811 58.5802 18.6561C58.8841 19.0076 59.0244 19.4998 59.0244 20.1326V23.3435H57.8088V20.2967C57.8321 19.9685 57.762 19.6639 57.5984 19.3826C57.4347 19.1717 57.1776 19.0545 56.8971 19.0779C56.6399 19.0779 56.3827 19.1482 56.1724 19.2889C55.962 19.4061 55.7983 19.5935 55.7048 19.8045C55.6347 20.1795 55.6113 20.5545 55.6113 20.9295V23.4138H54.3957V18.2811Z" fill="white"/>
<path d="M60.0063 23.0857C60.5673 23.367 61.1751 23.4842 61.8063 23.4607C62.344 23.4842 62.8583 23.3435 63.3025 23.1092C63.6531 22.8279 63.8402 22.3826 63.8168 21.9373C63.8402 21.5858 63.7233 21.2577 63.4895 20.9998C63.1856 20.7186 62.8349 20.5077 62.4609 20.3905L62.2973 20.3202L62.1804 20.2733C61.9232 20.1796 61.6661 20.0624 61.4089 19.9217C61.2687 19.828 61.1985 19.6874 61.1985 19.5468C61.1985 19.3827 61.2687 19.2421 61.4089 19.1718C61.5726 19.078 61.783 19.0546 61.97 19.0546C62.4375 19.0546 62.9284 19.1718 63.3492 19.3827L63.6531 18.539C63.1155 18.2812 62.531 18.1405 61.9466 18.164C61.4557 18.1405 60.9647 18.2577 60.544 18.539C60.2167 18.7968 60.0297 19.1952 60.053 19.6171C60.0297 19.9452 60.1465 20.2733 60.3569 20.5311C60.6375 20.8124 60.9881 21.0233 61.3622 21.1405L61.6193 21.2342C61.8998 21.328 62.157 21.4452 62.4141 21.6092C62.5544 21.703 62.6245 21.867 62.6245 22.0311C62.6245 22.2186 62.531 22.3826 62.3908 22.4764C62.2037 22.5701 61.97 22.617 61.7596 22.617C61.4557 22.5936 61.1751 22.5467 60.8946 22.4764C60.6375 22.4061 60.3803 22.2889 60.1232 22.1717L60.0063 23.0857Z" fill="white"/>
<path fill-rule="evenodd" clip-rule="evenodd" d="M64.8219 23.3669V16.5702H67.0895C67.5571 16.5702 68.0246 16.6405 68.4688 16.7811C68.8195 16.8983 69.1467 17.1327 69.3571 17.4608C69.5909 17.8123 69.7078 18.2108 69.6844 18.6326C69.6844 18.9373 69.6377 19.2186 69.5675 19.4998C69.474 19.7576 69.3338 19.992 69.1467 20.1795C68.913 20.4139 68.6558 20.5545 68.3519 20.6482C67.9545 20.7654 67.5337 20.8123 67.0895 20.8123C66.6687 20.8123 66.3181 20.8123 66.0609 20.7654V23.3669H64.8219ZM66.9493 19.8748C67.183 19.8748 67.3934 19.8514 67.6272 19.8045C67.7908 19.7576 67.9311 19.7107 68.0714 19.617C68.1649 19.5467 68.2584 19.4529 68.3285 19.3357C68.3987 19.242 68.422 19.1248 68.4454 19.0076C68.4688 18.8905 68.4688 18.7733 68.4688 18.6561C68.4922 18.328 68.3519 18.0233 68.1181 17.8123C67.8142 17.6014 67.4636 17.5077 67.0895 17.5311H66.0609V19.8982C66.1077 19.8748 66.3882 19.8748 66.9493 19.8748Z" fill="white"/>
<path fill-rule="evenodd" clip-rule="evenodd" d="M70.596 23.0621C70.9233 23.3433 71.3207 23.4839 71.7415 23.4605C72.0454 23.4605 72.3493 23.4136 72.6298 23.273C72.9103 23.1324 73.1675 22.9449 73.3779 22.7339C73.3779 22.7339 73.4246 22.8511 73.4714 23.0386C73.5181 23.2261 73.5649 23.3433 73.5649 23.3433H74.4532V20.0152C74.4532 19.3356 74.2896 18.8668 73.9857 18.5621C73.6818 18.2575 73.1675 18.1168 72.4895 18.1168C71.835 18.0934 71.157 18.234 70.5492 18.4918L70.6895 18.9137C70.8064 19.1949 70.8531 19.3356 70.8531 19.3356C71.3207 19.1246 71.835 19.0075 72.3727 18.984C72.6064 18.9606 72.8402 19.0309 73.0272 19.1949C73.1909 19.3824 73.261 19.6403 73.2376 19.8746V20.1559L72.9103 20.1793L72.5363 20.2262C72.4895 20.2379 72.4369 20.2438 72.3843 20.2496C72.3317 20.2555 72.2791 20.2613 72.2324 20.2731C71.6713 20.2965 71.1337 20.4605 70.6661 20.7652C70.3154 21.0465 70.1284 21.4918 70.1518 21.9371C70.1284 22.3589 70.2921 22.7808 70.596 23.0621ZM72.7934 22.3824C72.583 22.523 72.3259 22.5933 72.0688 22.5933C71.8817 22.6168 71.6713 22.5464 71.5077 22.4058C71.3674 22.2886 71.3207 22.1011 71.3207 21.9136C71.3207 21.6558 71.4376 21.3746 71.6713 21.234C71.9986 21.0699 72.3727 20.9762 72.7467 20.9527L73.0038 20.9293L73.2376 20.9058V21.8902C73.1441 22.1011 72.9805 22.2652 72.7934 22.3824Z" fill="white"/>
<path d="M75.6926 17.5311V16.4999H76.9082V17.5311H75.6926Z" fill="white"/>
<path d="M75.6926 23.3669V18.2811H76.9082V23.3669H75.6926Z" fill="white"/>
<path fill-rule="evenodd" clip-rule="evenodd" d="M21.6573 19.0545H24.8383L25.9564 23.3904H21.6807C19.717 23.3904 16 22.1951 16 17.6952C16 13.1953 19.717 12 21.6807 12H24.7899L25.9354 16.3124H21.6573C21.2599 16.3358 20.3014 16.4765 20.3014 17.6952C20.2781 18.0467 20.3949 18.3983 20.6287 18.6561C20.9093 18.8905 21.2833 19.0311 21.6573 19.0545Z" fill="#001D6D"/>
<path d="M27.1978 28.0544H31.546L30.9616 25.9217H32.1071C34.0708 25.9217 37.7644 24.7264 37.7644 20.2265C37.7644 15.7266 34.0708 14.5547 32.1071 14.5547H23.5977L24.8134 19.0546H32.0136C32.4344 19.0546 33.5097 18.9374 33.5799 20.1796C33.6266 21.328 32.5513 21.3983 32.1305 21.4218H25.4212L27.1978 28.0544Z" fill="#0C98FA"/>
</svg>
