<svg width="100" height="40" viewBox="0 0 100 40" fill="none" xmlns="http://www.w3.org/2000/svg">
<path fill-rule="evenodd" clip-rule="evenodd" d="M79.1832 15.8618C78.3662 15.3134 77.1574 15.0336 75.5569 15.0336H71.3599L69.8042 23.4948H64.3089L64.667 21.5697H67.9687L68.3604 19.4097H65.0476L65.4057 17.4958H68.8193L69.267 15.0224H62.3391L60.8617 23.0471H58.3211L59.8097 15.0224H56.1946L54.7173 23.0471H52.2438L53.7324 15.0224H50.1174L48.5505 23.4836H43.0216L43.3685 21.5586H46.6926L47.0843 19.4097H43.7603L44.1072 17.4846H47.5656L48.0132 15H26.4461L25.215 21.7376L22.7751 15.0336H19.0146L17 25.9794H20.5815L21.8014 19.0851L24.1741 25.9794H37.0226L38.5895 17.5182H40.6041L39.0372 25.9794H72.8484L73.8334 20.6408L75.4226 25.9794H79.0153L77.3701 21.6145L77.7394 21.5362C78.5676 21.3571 79.2168 20.9766 79.6644 20.4058C80.1121 19.835 80.3471 19.0851 80.3471 18.2009C80.336 17.1601 79.9554 16.399 79.1832 15.8618ZM33.9112 23.4948H28.4271L28.7853 21.5697H32.2324L32.6241 19.4097H29.2106L29.5351 17.507H35.0192L33.9112 23.4948ZM76.2173 19.8014C75.8591 20.0588 75.3331 20.1707 74.6168 20.1707H73.9005L74.4489 17.2384H74.975C75.5681 17.2384 76.0046 17.3391 76.2956 17.5294C76.5307 17.6861 76.7993 17.9771 76.7993 18.5479C76.8216 19.253 76.4971 19.6223 76.2173 19.8014Z" fill="#83BA3B"/>
<path fill-rule="evenodd" clip-rule="evenodd" d="M81.9589 25.2746L81.8694 23.551L82.6304 23.5063C82.7535 23.4951 82.8655 23.5063 82.9774 23.5398C83.0557 23.5622 83.1341 23.6182 83.1788 23.6965C83.2348 23.7749 83.2572 23.8644 83.2684 23.9539C83.2796 24.0659 83.246 24.1778 83.1676 24.2673C83.0781 24.368 82.9438 24.4352 82.8095 24.4464C82.8655 24.4688 82.9102 24.4912 82.955 24.5247C83.0333 24.5919 83.1005 24.659 83.1565 24.7486L83.481 25.1963L83.2012 25.2074L82.955 24.8605C82.8879 24.7598 82.8207 24.6814 82.7759 24.6367C82.7424 24.5919 82.6976 24.5583 82.6528 24.5247C82.6192 24.5023 82.5857 24.4912 82.5409 24.48C82.526 24.48 82.5111 24.4787 82.4961 24.4775C82.4663 24.475 82.4364 24.4725 82.4066 24.48L82.138 24.4912L82.1828 25.2522L81.9589 25.2746ZM82.138 24.3009L82.6304 24.2785C82.7088 24.2785 82.7983 24.2673 82.8767 24.2337C82.9326 24.2114 82.9774 24.1778 82.9998 24.1218C83.0222 24.0771 83.0445 24.0211 83.0333 23.9651C83.0333 23.8868 82.9886 23.8196 82.9326 23.7637C82.8543 23.7077 82.7535 23.6853 82.6528 23.6965L82.1044 23.7189L82.138 24.3009Z" fill="#83BA3B"/>
<path fill-rule="evenodd" clip-rule="evenodd" d="M80.9404 24.4575C80.8956 23.5733 81.5783 22.8123 82.4625 22.7675C83.3467 22.7227 84.1077 23.3943 84.1525 24.2896C84.1973 25.1738 83.5145 25.9348 82.6304 25.9796C81.7462 26.0244 80.9851 25.3417 80.9404 24.4575ZM82.4401 23.0025C81.7126 23.0585 81.153 23.6964 81.209 24.4351C81.2426 25.1402 81.8245 25.6998 82.5296 25.6886C83.2683 25.6886 83.8727 25.0954 83.8727 24.3568V24.2337C83.8167 23.5062 83.1788 22.9466 82.4401 23.0025Z" fill="#83BA3B"/>
</svg>
