<svg width="100" height="40" viewBox="0 0 100 40" fill="none" xmlns="http://www.w3.org/2000/svg">
<g clip-path="url(#clip0_3_88)">
<path d="M50.4923 15.49C49.4296 15.49 48.6532 15.8436 48.1471 16.568C48.1471 16.1029 47.7762 15.7258 47.3191 15.7258H45.3464V21.2986C45.346 21.6724 45.4181 22.0427 45.5587 22.3883C45.6992 22.7338 45.9054 23.0479 46.1654 23.3126C46.4255 23.5772 46.7344 23.7873 47.0744 23.9307C47.4144 24.0742 47.7789 24.1482 48.1471 24.1486V19.6674C48.1471 18.6738 48.6527 18.1348 49.5302 18.1348C50.2895 18.1348 50.7956 18.5894 50.7956 19.4652V21.2986C50.7952 21.6725 50.8673 22.0428 51.0079 22.3884C51.1484 22.734 51.3547 23.0481 51.6148 23.3127C51.8749 23.5774 52.1838 23.7874 52.5239 23.9309C52.864 24.0743 53.2285 24.1483 53.5968 24.1486V19.1117C53.5968 16.7702 52.3143 15.49 50.4923 15.49ZM58.7746 24.3843C60.04 24.3843 61.1027 23.9632 61.9632 23.1041C62.8407 22.2451 63.2792 21.1839 63.2792 19.9372C63.2792 18.6905 62.8407 17.646 61.9637 16.787C61.1027 15.9279 60.04 15.49 58.7746 15.49C57.5262 15.49 56.4635 15.9279 55.5865 16.787C54.7085 17.646 54.27 18.6905 54.27 19.9372C54.27 21.1839 54.7085 22.2451 55.586 23.1041C56.463 23.9632 57.5262 24.3843 58.7746 24.3843ZM58.7746 21.6893C57.813 21.6893 57.0877 20.9649 57.0877 19.9372C57.0877 18.9095 57.813 18.185 58.7746 18.185C59.7702 18.185 60.4785 18.9095 60.4785 19.9372C60.4785 20.9649 59.7702 21.6893 58.7746 21.6893ZM70.2853 16.501C69.7116 15.8269 68.9187 15.49 67.8896 15.49C66.7598 15.49 65.8147 15.9112 65.0554 16.7702C64.296 17.6125 63.9251 18.6738 63.9251 19.9372C63.9251 21.2006 64.2965 22.2619 65.0548 23.1209C65.8147 23.9632 66.7593 24.3843 67.8896 24.3843C68.9187 24.3843 69.7116 24.0475 70.2853 23.3734C70.2853 23.8019 70.6263 24.1486 71.0467 24.1486H73.0859V12.3566C72.3423 12.3576 71.6295 12.6584 71.1043 13.193C70.579 13.7276 70.2845 14.4521 70.2853 15.2072V16.501ZM67.2313 21.2677C66.9115 20.9314 66.7423 20.4929 66.7423 19.9372C66.7423 19.3814 66.9109 18.9435 67.2318 18.6067C67.5522 18.2694 67.9912 18.1012 68.5138 18.1012C69.0369 18.1012 69.4759 18.2694 69.7962 18.6062C70.1166 18.9435 70.2853 19.3814 70.2853 19.9372C70.2853 20.4929 70.1166 20.9314 69.7962 21.2677C69.4759 21.605 69.0369 21.7737 68.5138 21.7737C67.9912 21.7737 67.5522 21.605 67.2318 21.2682L67.2313 21.2677ZM80.1988 16.501C79.6252 15.8269 78.8323 15.49 77.8031 15.49C76.6728 15.49 75.7283 15.9112 74.9689 16.7702C74.2095 17.6125 73.8386 18.6738 73.8386 19.9372C73.8386 21.2006 74.2095 22.2619 74.9689 23.1209C75.7283 23.9632 76.6728 24.3843 77.8031 24.3843C78.8323 24.3843 79.6252 24.0475 80.1988 23.3734C80.1988 23.8019 80.5398 24.1486 80.9602 24.1486H82.9995V15.7258H80.9602C80.5398 15.7258 80.1988 16.0725 80.1988 16.501ZM77.1454 21.2677C76.8245 20.9314 76.6558 20.4929 76.6558 19.9372C76.6558 19.3814 76.8245 18.9435 77.1454 18.6067C77.4657 18.2694 77.9042 18.1012 78.4273 18.1012C78.9504 18.1012 79.3889 18.2694 79.7098 18.6062C80.0301 18.9435 80.1988 19.3814 80.1988 19.9372C80.1988 20.4929 80.0301 20.9314 79.7098 21.2677C79.3889 21.605 78.9504 21.7737 78.4273 21.7737C77.9042 21.7737 77.4657 21.605 77.1454 21.2682V21.2677Z" fill="white"/>
<path fill-rule="evenodd" clip-rule="evenodd" d="M26.3886 9C21.7556 9 18 12.8222 18 17.5376V17.5381V22.2801C18 26.996 21.7561 30.8182 26.3886 30.8182H31.049C35.6821 30.8182 39.4376 26.996 39.4376 22.2807V17.5376C39.4376 12.8222 35.6815 9 31.049 9H26.3886ZM27.2218 16.1453C27.8202 15.291 28.7379 14.874 29.9951 14.874C32.1494 14.874 33.666 16.3842 33.666 19.1447V25.0841C31.8373 25.0841 30.3536 23.5745 30.3536 21.7129V19.5616C30.3536 18.5292 29.7552 17.9928 28.8576 17.9928C27.8197 17.9928 27.2212 18.6282 27.2212 19.8005V25.0841C25.3925 25.0841 23.9093 23.5745 23.9093 21.7129V15.1522H26.2457C26.374 15.1523 26.5011 15.1781 26.6196 15.2281C26.738 15.2781 26.8457 15.3513 26.9363 15.4435C27.027 15.5357 27.0988 15.6452 27.1478 15.7656C27.1968 15.886 27.2219 16.015 27.2218 16.1453Z" fill="url(#paint0_linear_3_88)"/>
</g>
<defs>
<linearGradient id="paint0_linear_3_88" x1="28.7188" y1="9" x2="28.7188" y2="30.8182" gradientUnits="userSpaceOnUse">
<stop stop-color="#6935D2"/>
<stop offset="1" stop-color="#EC6C71"/>
</linearGradient>
<clipPath id="clip0_3_88">
<rect width="65" height="22" fill="white" transform="translate(18 9)"/>
</clipPath>
</defs>
</svg>
