<svg width="100" height="40" viewBox="0 0 100 40" fill="none" xmlns="http://www.w3.org/2000/svg">
<g clip-path="url(#clip0_3_96)">
<path fill-rule="evenodd" clip-rule="evenodd" d="M45.341 30C45.4369 30 45.529 29.961 45.5974 29.8913C45.6658 29.8216 45.7051 29.7268 45.7068 29.6274V17.4247C45.7068 16.4488 46.0806 15.5129 46.7461 14.8229C47.4115 14.1329 48.3141 13.7452 49.2552 13.7452H52.7201C53.6579 13.7505 54.5555 14.1405 55.2168 14.8299C55.8781 15.5194 56.2493 16.4523 56.2493 17.4247V20.0196C56.2476 20.9949 55.8732 21.9297 55.2081 22.6194C54.543 23.309 53.6414 23.6973 52.7009 23.699H47.8307C47.7354 23.699 47.644 23.7383 47.5766 23.8082C47.5092 23.878 47.4713 23.9728 47.4713 24.0716C47.4713 24.1704 47.5092 24.2652 47.5766 24.3351C47.644 24.405 47.7354 24.4442 47.8307 24.4442H52.7265C53.8588 24.4442 54.9448 23.9783 55.7461 23.1487C56.5473 22.3191 56.9983 21.1937 57 20.0196V17.4247C57 16.2523 56.5513 15.1279 55.7525 14.2983C54.9536 13.4687 53.87 13.0018 52.7394 13H49.2744C48.1421 13 47.0561 13.466 46.2549 14.2955C45.4536 15.1251 45.0027 16.2506 45.001 17.4247V29.6008C44.9975 29.6503 45.0036 29.7 45.0189 29.747C45.0341 29.794 45.0583 29.8374 45.09 29.8746C45.1217 29.9117 45.1602 29.942 45.2033 29.9635C45.2464 29.9851 45.2932 29.9975 45.341 30Z" fill="white"/>
<path fill-rule="evenodd" clip-rule="evenodd" d="M60.6232 23.9995C60.7237 23.9978 60.8196 23.9589 60.89 23.8911C60.9605 23.8233 61 23.7321 61 23.6371V14.9519C61.0009 14.6959 60.9483 14.4422 60.8452 14.2054C60.7421 13.9687 60.5906 13.7534 60.3993 13.5721C60.208 13.3908 59.9807 13.2469 59.7305 13.1487C59.4803 13.0505 59.212 13 58.941 13H57.3328C57.2407 13.0116 57.1562 13.0544 57.095 13.1205C57.0337 13.1866 57 13.2714 57 13.3592C57 13.4471 57.0337 13.5319 57.095 13.598C57.1562 13.664 57.2407 13.7069 57.3328 13.7185H58.9141C59.0852 13.7185 59.2546 13.7504 59.4126 13.8125C59.5706 13.8745 59.7141 13.9655 59.8348 14.0801C59.9554 14.1947 60.0509 14.3308 60.1158 14.4804C60.1807 14.63 60.2136 14.7903 60.2127 14.9519V23.6371C60.2136 23.6866 60.225 23.7355 60.2462 23.7808C60.2675 23.8261 60.2982 23.8668 60.3365 23.9007C60.3748 23.9345 60.4199 23.9607 60.4692 23.9777C60.5184 23.9946 60.5708 24.0021 60.6232 23.9995Z" fill="white"/>
<path d="M60.7182 11.8794L60.1209 11.2837C60.0827 11.2475 60.0523 11.2039 60.0315 11.1556C60.0107 11.1073 60 11.0552 60 11.0027C60 10.9501 60.0107 10.8981 60.0315 10.8498C60.0523 10.8015 60.0827 10.7579 60.1209 10.7217L60.7182 10.1259C60.7537 10.0863 60.7971 10.0546 60.8456 10.0329C60.8942 10.0112 60.9468 10 61 10C61.0532 10 61.1058 10.0112 61.1544 10.0329C61.2029 10.0546 61.2464 10.0863 61.2818 10.1259L61.8791 10.7217C61.9173 10.7579 61.9477 10.8015 61.9685 10.8498C61.9893 10.8981 62 10.9501 62 11.0027C62 11.0552 61.9893 11.1073 61.9685 11.1556C61.9477 11.2039 61.9173 11.2475 61.8791 11.2837L61.2818 11.8794C61.2454 11.9175 61.2017 11.9479 61.1533 11.9686C61.1049 11.9893 61.0527 12 61 12C60.9473 12 60.8951 11.9893 60.8467 11.9686C60.7983 11.9479 60.7546 11.9175 60.7182 11.8794Z" fill="#32BCAD"/>
<path fill-rule="evenodd" clip-rule="evenodd" d="M72.7041 17.115C72.5541 17.2515 72.3529 17.328 72.1434 17.328C71.9338 17.328 71.7326 17.2515 71.5826 17.115L68.1227 13.8801C67.823 13.6008 67.4673 13.3793 67.0759 13.2282C66.6845 13.0772 66.265 12.9997 65.8415 13H64.3568C64.2622 13 64.1714 13.0351 64.1045 13.0975C64.0376 13.16 64 13.2447 64 13.333C64 13.4219 64.0374 13.5072 64.1041 13.5706C64.1709 13.634 64.2616 13.6704 64.3568 13.672H65.8415C66.1704 13.6718 66.4962 13.7321 66.8001 13.8494C67.104 13.9668 67.3802 14.1388 67.6129 14.3558L71.0793 17.5907C71.3622 17.8529 71.7447 18 72.1434 18C72.5421 18 72.9246 17.8529 73.2075 17.5907L76.6611 14.3677C76.8945 14.15 77.1718 13.9775 77.4768 13.8602C77.7819 13.7428 78.1089 13.6829 78.4389 13.6838H79.6432C79.7331 13.6827 79.8194 13.6504 79.8853 13.5933C79.9513 13.5362 79.9921 13.4583 80 13.3746C80 13.2863 79.9624 13.2016 79.8955 13.1392C79.8286 13.0767 79.7378 13.0416 79.6432 13.0416H78.4389C77.5948 13.0384 76.7828 13.3436 76.1768 13.892L72.7041 17.115Z" fill="white"/>
<path fill-rule="evenodd" clip-rule="evenodd" d="M64 23.6606C64 23.7496 64.0374 23.835 64.1041 23.8985C64.1709 23.962 64.2616 23.9984 64.3568 24H65.8415C66.6977 23.9984 67.5181 23.6793 68.1227 23.1127L71.5826 19.8793C71.6561 19.8102 71.7434 19.7553 71.8397 19.7179C71.9359 19.6804 72.0391 19.6611 72.1434 19.6611C72.2476 19.6611 72.3508 19.6804 72.4471 19.7179C72.5433 19.7553 72.6307 19.8102 72.7041 19.8793L76.1768 23.0949C76.7833 23.6623 77.6061 23.9815 78.4644 23.9821H79.6687C79.7562 23.975 79.8379 23.9385 79.8989 23.8794C79.9598 23.8203 79.9957 23.7426 80 23.6606C80 23.5721 79.9624 23.4873 79.8955 23.4248C79.8286 23.3622 79.7378 23.3271 79.6432 23.3271H78.4389C78.1085 23.327 77.7814 23.2659 77.4763 23.1473C77.1712 23.0288 76.8942 22.8552 76.6611 22.6364L73.2075 19.4148C73.0682 19.2834 72.9025 19.1791 72.7199 19.1079C72.5372 19.0367 72.3413 19 72.1434 19C71.9455 19 71.7495 19.0367 71.5669 19.1079C71.3842 19.1791 71.2185 19.2834 71.0793 19.4148L67.6129 22.6483C67.1436 23.0887 66.5066 23.3371 65.8415 23.339H64.3568C64.2644 23.339 64.1755 23.3725 64.1089 23.4324C64.0424 23.4924 64.0033 23.5742 64 23.6606Z" fill="white"/>
<path d="M35.6768 26.1457C35.3206 26.147 34.9676 26.0697 34.6381 25.9184C34.3086 25.7671 34.009 25.5447 33.7565 25.2639L30.9847 22.1675C30.8881 22.0602 30.7574 22 30.6212 22C30.485 22 30.3543 22.0602 30.2576 22.1675L27.4859 25.2709C27.2338 25.5547 26.9336 25.7795 26.6027 25.9321C26.2719 26.0847 25.9172 26.162 25.5593 26.1596H25L28.5113 30.0822C28.7716 30.3732 29.0806 30.604 29.4208 30.7615C29.761 30.9189 30.1256 31 30.4938 31C30.862 31 31.2266 30.9189 31.5668 30.7615C31.9069 30.604 32.216 30.3732 32.4763 30.0822L36 26.1457H35.6768Z" fill="#32BCAD"/>
<path d="M25.5587 16.8205C25.9173 16.8223 26.272 16.9034 26.6023 17.0593C26.9326 17.2151 27.232 17.4425 27.4831 17.7283L30.2579 20.8328C30.3544 20.9399 30.485 21 30.6211 21C30.7571 21 30.8877 20.9399 30.9842 20.8328L33.7466 17.7283C33.9977 17.4458 34.2966 17.2219 34.6259 17.0697C34.9552 16.9174 35.3083 16.8397 35.6648 16.8412H36L32.4802 12.9189C32.2207 12.6277 31.9121 12.3966 31.5723 12.2389C31.2324 12.0812 30.868 12 30.5 12C30.132 12 29.7676 12.0812 29.4277 12.2389C29.0879 12.3966 28.7793 12.6277 28.5198 12.9189L25 16.8205H25.5587Z" fill="#32BCAD"/>
<path d="M39.163 19.3079L36.9885 17C36.9396 17.021 36.8876 17.0325 36.835 17.034H35.8244C35.3062 17.0369 34.8098 17.257 34.443 17.6467L31.5905 20.6762C31.4646 20.8129 31.3143 20.9213 31.1484 20.9949C30.9825 21.0686 30.8045 21.1061 30.6247 21.1051C30.4456 21.1058 30.2681 21.0689 30.1023 20.9965C29.9366 20.9241 29.7859 20.8175 29.659 20.6831L26.7937 17.6127C26.4276 17.2217 25.9307 17.0014 25.4122 17H24.197C24.1464 17.0112 24.0941 17.0112 24.0435 17L21.8434 19.3079C21.3032 19.8858 21 20.6678 21 21.483C21 22.2982 21.3032 23.0802 21.8434 23.6581L24.0435 26C24.0921 25.9897 24.142 25.9897 24.1906 26H25.4122C25.9306 25.9979 26.4272 25.7776 26.7937 25.3873L29.659 22.3442C29.918 22.0827 30.2613 21.937 30.6183 21.937C30.9753 21.937 31.3186 22.0827 31.5777 22.3442L34.4302 25.3464C34.798 25.7337 35.2943 25.9513 35.8116 25.9523H36.8094C36.862 25.9538 36.914 25.9654 36.9629 25.9864L39.1502 23.6581C39.6921 23.082 39.9976 22.301 40 21.4858C40.0024 20.6706 39.7015 19.8876 39.163 19.3079Z" fill="#32BCAD"/>
<path d="M48.5366 28.1619C48.3842 28.1725 48.233 28.2113 48.0859 28.2774V29.2452C48.1974 29.3134 48.3157 29.3466 48.4346 29.3429C48.7351 29.3429 48.88 29.1742 48.88 28.7391C48.88 28.304 48.7619 28.1619 48.5366 28.1619ZM48 30V28.0465H48.0859V28.1264C48.2386 28.0598 48.395 28.0182 48.5527 28.0021C48.664 27.9884 48.7746 28.0421 48.8639 28.153C48.9121 28.2307 48.9491 28.3253 48.9723 28.4298C48.9955 28.5343 49.0043 28.646 48.998 28.7569C49.0036 28.8811 48.9885 29.0055 48.9545 29.1166C48.9205 29.2277 48.8687 29.3213 48.8049 29.3873C48.6963 29.4742 48.5767 29.5168 48.4561 29.5116C48.3342 29.5119 48.2131 29.482 48.0966 29.4228V30H48Z" fill="white"/>
<path d="M49.4998 28.0997C49.2235 28.0997 49.1002 28.2052 49.1002 28.4926C49.1002 28.7799 49.2235 28.8972 49.4998 28.8972C49.776 28.8972 49.8993 28.7975 49.8993 28.5102C49.8993 28.2228 49.776 28.0997 49.4998 28.0997ZM49.8549 28.8972C49.749 28.9761 49.6241 29.0111 49.4998 28.9969C49.3756 29.0082 49.2515 28.9734 49.1446 28.8972C49.0949 28.85 49.0558 28.7889 49.0308 28.7193C49.0059 28.6497 48.9958 28.5738 49.0016 28.4984C48.9971 28.4233 49.0077 28.3479 49.0326 28.2785C49.0575 28.2092 49.0959 28.1479 49.1446 28.0997C49.2549 28.0341 49.3765 28 49.4998 28C49.623 28 49.7446 28.0341 49.8549 28.0997C49.9046 28.1469 49.9437 28.208 49.9687 28.2776C49.9936 28.3472 50.0037 28.4231 49.9979 28.4984C50.0046 28.5739 49.995 28.6501 49.97 28.7199C49.9449 28.7897 49.9053 28.8507 49.8549 28.8972Z" fill="white"/>
<path d="M52.4441 29L52.0169 28.1677L51.5695 29H51.4542L51 28H51.1424L51.5695 28.8385L51.9763 28H52.0915L52.4983 28.8385L52.8644 28H53L52.5525 29H52.4441Z" fill="white"/>
<path d="M53.496 28.1008C53.2166 28.1008 53.1199 28.2355 53.1038 28.4288H53.8828C53.8559 28.2355 53.7753 28.1008 53.496 28.1008ZM53.496 28.9968C53.369 29.0113 53.2414 28.976 53.1361 28.8973C53.0881 28.8458 53.0513 28.7834 53.028 28.7145C53.0048 28.6457 52.9959 28.5721 53.0018 28.499C52.998 28.4227 53.0105 28.3464 53.0385 28.2762C53.0665 28.2061 53.1091 28.144 53.1629 28.0949C53.2648 28.0279 53.3825 27.9953 53.5014 28.0012C53.6221 27.993 53.7422 28.0257 53.8452 28.0949C53.9017 28.1475 53.9452 28.2148 53.9715 28.2905C53.9978 28.3663 54.0061 28.4481 53.9956 28.5283H53.0985C53.0985 28.7216 53.1629 28.8973 53.5014 28.8973C53.651 28.8922 53.8001 28.8746 53.9472 28.8445V28.9441C53.7964 28.9735 53.6438 28.9911 53.4906 28.9968H53.496Z" fill="white"/>
<path d="M55 29V28.0301H55.1579V28.0843C55.4308 28.0349 55.714 28.0066 56 28V28.1084C55.7282 28.1128 55.4589 28.1392 55.2 28.1867V29H55Z" fill="white"/>
<path d="M55.4954 28.1011C55.2164 28.1011 55.1252 28.2358 55.1037 28.4289H55.8817C55.8764 28.2358 55.7744 28.1011 55.4954 28.1011ZM55.4954 28.9968C55.3685 29.0113 55.2411 28.976 55.1359 28.8973C55.088 28.8458 55.0512 28.7834 55.028 28.7146C55.0048 28.6458 54.9959 28.5722 55.0018 28.4992C54.9992 28.423 55.0123 28.3472 55.0402 28.2773C55.068 28.2073 55.1099 28.1451 55.1627 28.0953C55.2644 28.0283 55.3821 27.9957 55.5008 28.0016C55.6214 27.9922 55.7417 28.025 55.8442 28.0953C55.9019 28.1467 55.9462 28.2138 55.9726 28.2899C55.9989 28.3659 56.0065 28.4482 55.9944 28.5285H55.1037C55.1037 28.7217 55.1627 28.8973 55.5008 28.8973C55.6503 28.8926 55.7992 28.875 55.9461 28.8446V28.9441C55.7955 28.9739 55.643 28.9915 55.49 28.9968H55.4954Z" fill="white"/>
<path d="M57.9093 28.7642C57.7977 28.7013 57.6805 28.6691 57.5624 28.6687C57.2635 28.6687 57.1194 28.8336 57.1194 29.2592C57.1194 29.6847 57.2368 29.8497 57.461 29.8497C57.6122 29.835 57.7623 29.7972 57.9093 29.7368V28.7642ZM57.9093 29.9625V29.8757C57.7556 29.9415 57.5983 29.9822 57.4396 29.9973C57.3312 30.0126 57.2231 29.9632 57.1354 29.8583C57.0874 29.7807 57.0505 29.6867 57.0275 29.5831C57.0044 29.4795 56.9957 29.3689 57.002 29.2592C56.9974 29.1391 57.0129 29.0192 57.0467 28.9123C57.0805 28.8053 57.1315 28.7151 57.1941 28.6513C57.3008 28.5595 57.4204 28.5146 57.541 28.521C57.662 28.525 57.7822 28.5541 57.8986 28.6079V28H58V29.9886L57.9093 29.9625Z" fill="white"/>
<path d="M59.5415 28.6781C59.3907 28.6885 59.2412 28.7264 59.0956 28.7911V29.7388C59.206 29.805 59.323 29.8374 59.4406 29.8344C59.7379 29.8344 59.8813 29.6692 59.8813 29.2432C59.8813 28.8172 59.7645 28.6781 59.5415 28.6781ZM59.7963 29.8779C59.6889 29.9629 59.5706 30.0046 59.4512 29.9996C59.3212 29.9988 59.1922 29.9636 59.069 29.8953V29.9648H59V28H59.1062V28.6694C59.2555 28.6042 59.4085 28.5634 59.5627 28.5477C59.6712 28.5357 59.7786 28.5882 59.8653 28.6955C59.913 28.7716 59.9496 28.8642 59.9726 28.9665C59.9956 29.0688 60.0043 29.1782 59.998 29.2867C59.9996 29.4057 59.9817 29.5232 59.9462 29.6271C59.9107 29.7311 59.859 29.8176 59.7963 29.8779Z" fill="white"/>
<path d="M61.0217 30V29.8414H61.1522C61.2109 29.8485 61.2695 29.8238 61.3186 29.7712C61.3678 29.7186 61.4048 29.641 61.4239 29.5507L61.462 29.4361L61 28.0176H61.1196L61.5109 29.2247L61.8859 28H62L61.5109 29.5947C61.4838 29.7159 61.433 29.8193 61.3663 29.8893C61.2996 29.9593 61.2206 29.992 61.1413 29.9824L61.0217 30Z" fill="white"/>
<path d="M63.9634 29.1575H63.3999V29.6724H63.9725C64.3633 29.6724 64.5087 29.6724 64.5087 29.4104C64.5087 29.1485 64.3088 29.1575 63.9634 29.1575ZM63.8634 28.3266H63.3999V28.8505H63.8634C64.2542 28.8505 64.4087 28.8505 64.4087 28.5885C64.4087 28.3266 64.2088 28.3266 63.8634 28.3266ZM64.7723 29.853C64.4867 29.9772 64.1731 30.0239 63.8634 29.9885H63V28.0105H63.8452C64.1333 27.9779 64.4249 28.0215 64.6905 28.1369C64.7575 28.1784 64.8116 28.2374 64.8469 28.3076C64.8822 28.3777 64.8973 28.4562 64.8904 28.5343C64.898 28.6311 64.8712 28.7274 64.8148 28.8066C64.7583 28.8858 64.6758 28.9429 64.5814 28.9679C64.8359 29.0311 64.9995 29.1575 64.9995 29.4375C65.0037 29.5241 64.9818 29.61 64.9364 29.6841C64.891 29.7581 64.8244 29.817 64.745 29.853H64.7723Z" fill="white"/>
<path d="M64.7568 28.5772H64.4543C64.2821 28.5772 64.2247 28.6123 64.2247 28.7002C64.2247 28.788 64.2717 28.829 64.4073 28.829C64.525 28.823 64.6419 28.8054 64.7568 28.7763V28.5772ZM64.809 28.9755V28.9169C64.6593 28.9641 64.5053 28.9917 64.3499 28.9989C64.261 29.0054 64.1723 28.983 64.0943 28.9345C64.0636 28.9075 64.0391 28.8727 64.0228 28.833C64.0064 28.7933 63.9988 28.7498 64.0004 28.706C63.9975 28.652 64.0095 28.5984 64.0347 28.5523C64.0599 28.5061 64.0971 28.4699 64.1413 28.4483C64.243 28.4064 64.3513 28.3884 64.4595 28.3956C64.5603 28.3899 64.6612 28.3899 64.762 28.3956C64.762 28.2433 64.6786 28.1965 64.4386 28.1965H64.1308V28.0032C64.2508 28.0032 64.3812 28.0032 64.4908 28.0032C64.626 27.9895 64.7619 28.02 64.882 28.091C64.9247 28.1286 64.9578 28.1782 64.978 28.2348C64.9981 28.2913 65.0046 28.3529 64.9968 28.4132V28.9989L64.809 28.9755Z" fill="white"/>
<path d="M66.7791 28.994V28.4619C66.7791 28.2826 66.7027 28.2228 66.5652 28.2228C66.4517 28.2289 66.3391 28.249 66.2291 28.2826V28.994H66V28.0315H66.1884V28.0913C66.3311 28.0422 66.4779 28.0121 66.6263 28.0016C66.7274 27.9917 66.8277 28.0281 66.9064 28.1032C66.9402 28.1414 66.966 28.1883 66.9819 28.2401C66.9978 28.292 67.0033 28.3474 66.998 28.4022V29L66.7791 28.994Z" fill="white"/>
<path d="M68.5223 28.998C68.3937 29.0089 68.2653 28.9757 68.1595 28.9042C68.1033 28.8528 68.0599 28.7897 68.0326 28.7196C68.0054 28.6495 67.995 28.5743 68.0022 28.4998C67.9986 28.4216 68.0149 28.3438 68.0497 28.2733C68.0845 28.2027 68.1367 28.1416 68.2018 28.0953C68.3327 28.0248 68.4817 27.9922 68.6311 28.0016H68.9758V28.236C68.8731 28.2303 68.7701 28.2303 68.6674 28.236C68.4074 28.236 68.2865 28.3122 68.2865 28.5291C68.2865 28.7459 68.3772 28.8221 68.5888 28.8221C68.7269 28.8168 68.8644 28.8011 69 28.7752V28.9686C68.842 28.9927 68.6821 29.0025 68.5223 28.998Z" fill="white"/>
<path d="M70.0035 28.2024C69.6043 28.2024 69.4279 28.2788 69.4279 28.4964C69.4279 28.714 69.6043 28.8081 70.0035 28.8081C70.4027 28.8081 70.5698 28.7258 70.5698 28.5141C70.5698 28.3023 70.4027 28.2024 70.0035 28.2024ZM70.7183 28.9081C70.4905 28.9688 70.2459 29 69.9988 29C69.7518 29 69.5072 28.9688 69.2794 28.9081C69.1913 28.8569 69.121 28.7946 69.0729 28.7253C69.0248 28.6559 69 28.581 69 28.5052C69 28.4295 69.0248 28.3546 69.0729 28.2852C69.121 28.2159 69.1913 28.1536 69.2794 28.1024C69.5001 28.0249 69.7519 27.9902 70.0035 28.0024C70.252 27.991 70.5004 28.0257 70.7183 28.1024C70.8149 28.1484 70.8912 28.2093 70.94 28.2793C70.9887 28.3493 71.0083 28.4261 70.9968 28.5023C71.0082 28.5793 70.9886 28.6569 70.9399 28.7279C70.8912 28.7988 70.815 28.8608 70.7183 28.9081Z" fill="white"/>
<path d="M72.0249 29.9977C71.7743 30.0139 71.5256 29.9458 71.3206 29.805C71.2076 29.7033 71.1203 29.5777 71.0655 29.4379C71.0107 29.2982 70.9898 29.148 71.0046 28.9992C70.9976 28.8414 71.031 28.6844 71.1019 28.5423C71.1729 28.4001 71.279 28.2772 71.4109 28.1847C71.6647 28.0502 71.9531 27.9894 72.2416 28.0095C72.4731 27.9968 72.7052 27.9968 72.9368 28.0095V28.3511C72.7201 28.3511 72.4673 28.3511 72.2596 28.3511C71.6998 28.3511 71.4651 28.5613 71.4651 28.9992C71.4651 29.4371 71.6818 29.6561 72.0971 29.6561C72.4012 29.6473 72.7037 29.6091 73 29.5422V29.8838C72.6791 29.9497 72.3527 29.9878 72.0249 29.9977Z" fill="white"/>
<path d="M72.505 28.1717C72.3205 28.1717 72.2457 28.2479 72.2308 28.3943H72.7742C72.7692 28.2361 72.6895 28.1717 72.505 28.1717ZM72.4701 28.9977C72.3508 29.0097 72.2315 28.9747 72.1311 28.8981C72.0854 28.8474 72.0501 28.7852 72.0276 28.7163C72.0052 28.6473 71.9962 28.5733 72.0014 28.4997C71.9983 28.4243 72.0102 28.349 72.0362 28.2798C72.0621 28.2107 72.1014 28.1496 72.151 28.1014C72.2575 28.0262 72.3811 27.9914 72.505 28.0018C72.6265 27.9942 72.7474 28.0267 72.854 28.0955C72.9093 28.1532 72.9512 28.2265 72.9756 28.3085C73.0001 28.3906 73.0063 28.4786 72.9936 28.5642H72.2308C72.2308 28.7106 72.3006 28.8044 72.5249 28.8044C72.6688 28.7993 72.8121 28.7817 72.9537 28.7516V28.9391C72.7941 28.9737 72.6324 28.9933 72.4701 28.9977Z" fill="white"/>
<path d="M74.7787 28.994V28.4618C74.7787 28.2823 74.7023 28.2225 74.5649 28.2225C74.4514 28.2283 74.3388 28.2483 74.229 28.2823V28.994H74V28.0312H74.1883V28.091C74.3326 28.042 74.4811 28.0119 74.6311 28.0013C74.7319 27.9926 74.8319 28.0289 74.911 28.1029C74.9439 28.1417 74.9688 28.1888 74.9837 28.2407C74.9987 28.2925 75.0034 28.3477 74.9975 28.402V29L74.7787 28.994Z" fill="white"/>
<path d="M76.708 29.9876C76.6346 29.9972 76.5604 29.9825 76.4926 29.9447C76.4249 29.907 76.3658 29.8475 76.3212 29.7719C76.2587 29.6363 76.2306 29.479 76.2409 29.3219V28.7688H76V28.4594H76.2409V28H76.5328V28.4594H77V28.7688H76.5328V29.2563C76.5164 29.352 76.5164 29.4512 76.5328 29.5469C76.5538 29.5941 76.5849 29.6325 76.6225 29.6575C76.6601 29.6824 76.7024 29.6929 76.7445 29.6876C76.8222 29.6979 76.9005 29.6979 76.9781 29.6876V29.9969C76.888 30.0031 76.7977 30 76.708 29.9876Z" fill="white"/>
<path d="M77 28.994V28.0299H77.2951V28.0898C77.5071 28.0383 77.7277 28.008 77.9508 28H78V28.2395H77.8689C77.6946 28.2385 77.5209 28.2546 77.3525 28.2874V29L77 28.994Z" fill="white"/>
<path d="M78.7745 28.537H78.4616C78.2867 28.537 78.2283 28.5722 78.2283 28.6601C78.2283 28.748 78.2814 28.789 78.4139 28.789C78.5352 28.7826 78.6559 28.765 78.7745 28.7363V28.537ZM78.8222 28.9355V28.8769C78.6701 28.9242 78.5135 28.9517 78.3556 28.959C78.2652 28.9655 78.175 28.9431 78.0958 28.8945C78.0646 28.8675 78.0396 28.8327 78.023 28.793C78.0064 28.7532 77.9986 28.7097 78.0003 28.666C77.9978 28.6113 78.0107 28.557 78.0373 28.5108C78.0639 28.4646 78.1029 28.4287 78.1488 28.4081C78.2503 28.3661 78.3587 28.3481 78.4669 28.3554C78.5571 28.3554 78.6791 28.3554 78.7798 28.3554C78.7798 28.203 78.6897 28.1561 78.451 28.1561L78.1117 28.1971V28.0037C78.2336 28.0037 78.3662 28.0037 78.4776 28.0037C78.6151 27.9887 78.7536 28.0193 78.8753 28.0917C78.9196 28.1286 78.9543 28.1779 78.9758 28.2345C78.9972 28.2912 79.0046 28.3531 78.9972 28.414V29L78.8222 28.9355Z" fill="white"/>
<path d="M79 28H80V30H79V28Z" fill="white"/>
</g>
<defs>
<clipPath id="clip0_3_96">
<rect width="100" height="40" fill="white"/>
</clipPath>
</defs>
</svg>
