<svg width="100" height="40" viewBox="0 0 100 40" fill="none" xmlns="http://www.w3.org/2000/svg">
<path fill-rule="evenodd" clip-rule="evenodd" d="M44.7381 16.3966C44.4138 16.212 43.9962 16.3237 43.8069 16.6469C43.6176 16.9701 43.7283 17.3825 44.0526 17.5671C44.377 17.7517 44.7946 17.6401 44.9838 17.3168C45.1732 16.9936 45.0624 16.5812 44.7381 16.3966ZM59.8927 25.0038C59.5461 25.0038 59.2209 24.8358 59.0182 24.5525L57.4096 22.3006H56.6107V24.3372C56.6107 24.7053 56.3147 25.0038 55.949 25.0038C55.5837 25.0038 55.2876 24.7053 55.2876 24.3372V17.0556C55.2876 16.6874 55.5837 16.389 55.949 16.389C56.3147 16.389 56.6107 16.6874 56.6107 17.0556V21.1136H57.4214L58.8486 19.0996C59.045 18.822 59.363 18.6573 59.7015 18.6573C60.1284 18.6573 60.376 19.1442 60.1267 19.4934L58.5421 21.713L60.3252 24.1381C60.5888 24.4962 60.335 25.0038 59.8927 25.0038ZM37.6963 16.7768H39.3266C40.9479 16.7768 42.1758 17.9403 42.1758 19.669C42.1758 21.3859 40.9598 22.5494 39.3266 22.5494H37.61V24.3191C37.61 24.6973 37.3058 25.0038 36.9305 25.0038C36.5552 25.0038 36.2509 24.6973 36.2509 24.3191V18.233C36.2509 17.4288 36.898 16.7768 37.6963 16.7768ZM37.61 21.2684H39.267C40.1611 21.2684 40.781 20.5744 40.781 19.669C40.781 18.7518 40.1611 18.0578 39.267 18.0578H37.61V21.2684ZM44.4014 25.0038C44.036 25.0038 43.7398 24.7053 43.7398 24.3372V19.3238C43.7398 18.9557 44.036 18.6573 44.4014 18.6573C44.7668 18.6573 45.063 18.9557 45.063 19.3238V24.3372C45.063 24.7053 44.7668 25.0038 44.4014 25.0038ZM50.2797 25.1683C51.8653 25.1683 53.141 24.1811 53.4864 22.7002C53.5167 22.5522 53.4046 22.4135 53.2545 22.4135H52.6005C52.4086 22.4135 52.2334 22.5252 52.1512 22.7002C51.8057 23.4759 51.1263 23.9225 50.2797 23.9225C49.1353 23.9225 48.2531 23.0058 48.2531 21.8305C48.2531 20.6553 49.1234 19.7503 50.2797 19.7503C51.1141 19.7503 51.8294 20.1969 52.1634 20.9256C52.2654 21.1513 52.4894 21.2962 52.7356 21.2962H53.1706C53.3649 21.2962 53.5112 21.1178 53.4746 20.9256C53.1169 19.4682 51.8771 18.5045 50.2797 18.5045C48.3604 18.5045 46.906 19.9383 46.906 21.8305C46.906 23.7227 48.3604 25.1683 50.2797 25.1683ZM64.5823 25.1683C66.1557 25.1683 67.1929 24.3691 67.1929 23.1351C67.1929 21.5754 65.8754 21.3614 64.792 21.1853L64.7847 21.1841L64.77 21.1817C64.0018 21.0535 63.3544 20.9455 63.3544 20.3849C63.3544 19.9265 63.8074 19.6093 64.5346 19.6093C65.3095 19.6093 65.7862 19.9383 65.8099 20.5377C65.8099 20.6385 65.8876 20.722 65.9875 20.7285L66.8025 20.7824C66.9428 20.7917 67.0619 20.6795 67.0619 20.5377C67.0379 19.3154 66.0603 18.5045 64.5701 18.5045C63.0681 18.5045 62.0787 19.2919 62.0787 20.4319C62.0787 21.901 63.3425 22.1361 64.4152 22.3241C65.2022 22.4534 65.8935 22.5827 65.8935 23.1938C65.8935 23.7227 65.345 24.0165 64.63 24.0165C63.8548 24.0165 63.2826 23.664 63.2471 22.9941C63.2471 22.877 63.1569 22.7802 63.0409 22.7727L62.2476 22.7217C62.0916 22.7117 61.9596 22.8365 61.9596 22.9941C61.9951 24.3104 63.0204 25.1683 64.5823 25.1683ZM71.9692 18.5045C73.9484 18.5045 75.2596 20.0088 75.2596 21.854C75.2596 21.9951 75.2477 22.1361 75.2237 22.2771H70.0023C70.1691 23.3114 70.9203 23.946 71.9692 23.946C72.6219 23.946 73.1641 23.6961 73.5259 23.2664C73.6538 23.1141 73.8293 23.0058 74.0274 23.0058H74.6672C74.8751 23.0058 75.0207 23.2218 74.9235 23.4067C74.3437 24.5078 73.2616 25.1683 71.9692 25.1683C70.0858 25.1683 68.667 23.7345 68.667 21.8305C68.667 19.9383 70.0858 18.5045 71.9692 18.5045ZM73.9244 21.2194C73.6858 20.2556 72.9586 19.6915 71.9692 19.6915C70.9798 19.6915 70.2527 20.2791 70.0381 21.2194H73.9244ZM76.9382 24.3372C76.9382 24.7053 77.2346 25.0038 77.5999 25.0038C77.9652 25.0038 78.2616 24.7053 78.2616 24.3372V17.0556C78.2616 16.6874 77.9652 16.389 77.5999 16.389C77.2346 16.389 76.9382 16.6874 76.9382 17.0556V24.3372ZM81.1591 25.0038C80.7938 25.0038 80.4974 24.7053 80.4974 24.3372V17.0556C80.4974 16.6874 80.7938 16.389 81.1591 16.389C81.5244 16.389 81.8208 16.6874 81.8208 17.0556V24.3372C81.8208 24.7053 81.5244 25.0038 81.1591 25.0038Z" fill="white"/>
<path d="M22.0973 14.611C22.666 13.6399 23.9255 13.3072 24.9105 13.8679L30.5158 17.0584C31.5008 17.6191 31.8383 18.8608 31.2696 19.8319L28.0334 25.358C27.4647 26.3291 26.2051 26.6618 25.2201 26.1011L19.6148 22.9106C18.6298 22.35 18.2923 21.1083 18.861 20.1372L22.0973 14.611Z" fill="#2F2C5B"/>
</svg>
