<svg width="100" height="40" viewBox="0 0 100 40" fill="none" xmlns="http://www.w3.org/2000/svg">
<path d="M25 6H28.3333L31.0617 13.9902L33.9703 6H36.0064L38.9151 13.8761L41.6492 6H45L40.0553 20H37.8912L34.9825 12.0098L32.0041 20H29.8924" fill="white"/>
<path d="M54.3942 11.7163C54.1571 10.9374 53.6627 10.2616 52.9915 9.79909C52.284 9.30069 51.4359 9.04022 50.5701 9.05545C49.6249 9.03816 48.7003 9.33218 47.9393 9.89204C47.357 10.3922 46.9056 11.0263 46.6238 11.7395L54.3942 11.7163ZM57.9738 14.534H46.4667C46.5962 15.4764 47.0711 16.3374 47.7996 16.9508C48.5842 17.5696 49.5652 17.887 50.5643 17.8455C51.2023 17.8531 51.8354 17.7332 52.4262 17.4927C53.017 17.2522 53.5535 16.8961 54.0042 16.4453H57.4965C57.4726 16.9512 57.3117 17.4411 57.0309 17.8629C56.3488 18.8693 55.4187 19.6836 54.3302 20.2274C53.1575 20.7643 51.8774 21.0266 50.5876 20.9943C49.5792 21.0339 48.5734 20.8667 47.6324 20.5029C46.6913 20.1392 45.835 19.5867 45.1163 18.8796C44.4201 18.1862 43.8735 17.3579 43.5101 16.4456C43.1468 15.5334 42.9743 14.5566 43.0035 13.5754C42.973 12.5779 43.1439 11.5846 43.5059 10.6544C43.8678 9.72422 44.4135 8.8762 45.1105 8.16077C45.7925 7.45562 46.6141 6.89984 47.5229 6.52877C48.4318 6.1577 49.4081 5.97946 50.3897 6.00538C51.4041 5.96657 52.4156 6.13806 53.3603 6.50904C54.305 6.88001 55.1624 7.44242 55.8784 8.16077C56.5962 8.9215 57.1532 9.81867 57.5162 10.7988C57.8792 11.779 58.0408 12.822 57.9913 13.8659" fill="white"/>
<path d="M66.4291 9.51183C65.8984 9.49924 65.371 9.59441 64.8807 9.79119C64.3904 9.98798 63.9482 10.282 63.5827 10.6543C63.1997 11.0498 62.9021 11.5152 62.7074 12.0233C62.5127 12.5314 62.4248 13.072 62.4488 13.6133C62.3938 14.7209 62.7928 15.8048 63.559 16.6295C63.9249 16.9973 64.3637 17.29 64.8493 17.4899C65.3349 17.6897 65.8571 17.7928 66.3848 17.7928C66.9125 17.7928 67.4348 17.6897 67.9203 17.4899C68.4059 17.29 68.8447 16.9973 69.2106 16.6295C69.9811 15.8147 70.3904 14.7399 70.3503 13.6362C70.3906 12.5476 69.9877 11.4872 69.2283 10.6829C68.8689 10.3091 68.4312 10.0139 67.9444 9.81689C67.4576 9.61987 66.9329 9.52561 66.4055 9.54039M62.6083 2V8.17513C63.2187 7.57246 63.9422 7.08779 64.7401 6.74702C65.514 6.4251 66.3485 6.26172 67.1909 6.26718C68.1011 6.25704 69.0028 6.43705 69.8345 6.79492C70.6661 7.15279 71.4081 7.68009 72.0098 8.34079C73.3614 9.79624 74.0733 11.7041 73.994 13.659C74.0509 15.5981 73.3145 17.4805 71.9448 18.8973C71.3362 19.5578 70.5902 20.0864 69.7557 20.4487C68.9212 20.8109 68.017 20.9986 67.1023 20.9995C66.2934 21.0096 65.4904 20.864 64.7401 20.5711C63.946 20.2213 63.2238 19.7356 62.6083 19.1373V20.6168H59V2" fill="white"/>
<path d="M37.382 23.0459C36.8564 23.037 36.3346 23.1281 35.8493 23.3133C35.364 23.4985 34.9258 23.7738 34.5623 24.122C34.1806 24.4979 33.884 24.9396 33.6898 25.4214C33.4956 25.9031 33.4075 26.4155 33.4308 26.9286C33.4053 27.4496 33.4921 27.9701 33.6862 28.4602C33.8804 28.9504 34.1781 29.4007 34.5623 29.7852C34.9241 30.1451 35.3654 30.4302 35.8569 30.6215C36.3483 30.8128 36.8785 30.9059 37.4123 30.8946C37.9385 30.9035 38.4608 30.8091 38.944 30.6178C39.4272 30.4264 39.8601 30.1426 40.2138 29.7852C40.9844 29.0163 41.3932 27.9998 41.3514 26.9564C41.3854 25.9337 40.9839 24.9391 40.232 24.183C39.8755 23.8244 39.4395 23.5398 38.9531 23.3485C38.4668 23.1571 37.9414 23.0634 37.4123 23.0736M33.5881 20.3446V21.8034C34.2001 21.2348 34.9224 20.7758 35.718 20.45C36.4928 20.1482 37.3268 19.9952 38.1686 20.0007C39.0824 19.9875 39.9884 20.1563 40.8241 20.4953C41.6599 20.8343 42.4054 21.3355 43.0093 21.9643C44.3615 23.3419 45.0736 25.149 44.994 27.0007C45.0269 27.9156 44.8627 28.8274 44.5107 29.6841C44.1587 30.5407 43.6259 31.3252 42.9427 31.9928C42.3353 32.6196 41.5898 33.1212 40.7554 33.4644C39.921 33.8077 39.0166 33.9848 38.1021 33.9841C37.3053 33.9923 36.515 33.8526 35.7785 33.5737C34.9802 33.2534 34.2522 32.8023 33.6305 32.2424V38H30V20.3169" fill="#F7A519"/>
<path d="M51.8845 23.3263C51.341 23.3135 50.8007 23.4125 50.2974 23.6173C49.7942 23.822 49.3387 24.1281 48.9594 24.5163C48.57 24.9066 48.2635 25.3713 48.0583 25.8824C47.8532 26.3936 47.7536 26.9407 47.7656 27.4911C47.7472 28.0512 47.8436 28.6091 48.0489 29.1308C48.2542 29.6525 48.564 30.1271 48.9594 30.5254C49.338 30.9129 49.7925 31.2185 50.2947 31.4232C50.7969 31.6279 51.336 31.7274 51.8785 31.7154C52.4313 31.7321 52.9817 31.6351 53.4953 31.4304C54.0088 31.2257 54.4745 30.9176 54.8632 30.5254C55.2603 30.1221 55.571 29.6425 55.7763 29.1157C55.9815 28.589 56.077 28.0261 56.0571 27.4613C56.0775 26.9046 55.9819 26.3496 55.7764 25.8315C55.5709 25.3133 55.26 24.8432 54.8632 24.4508C54.4688 24.0688 54.0013 23.7697 53.4885 23.5714C52.9758 23.3731 52.4282 23.2796 51.8785 23.2966M55.872 20.3693H59V34.6366H55.878V33.1314C55.225 33.7359 54.4689 34.2195 53.6454 34.5593C52.8734 34.8597 52.0506 35.0091 51.2218 34.9996C50.2746 35.0077 49.3357 34.8224 48.463 34.4551C47.5904 34.0877 46.8024 33.5461 46.1478 32.8636C45.4421 32.1647 44.8877 31.3289 44.5191 30.4078C44.1505 29.4868 43.9754 28.5001 44.0048 27.5089C43.9689 26.516 44.1338 25.5261 44.4897 24.598C44.8455 23.6699 45.3851 22.8226 46.0762 22.1066C47.0424 21.1233 48.2775 20.445 49.6276 20.1562C50.9778 19.8674 52.3834 19.9808 53.6693 20.4824C54.4943 20.8432 55.2437 21.3559 55.878 21.9936" fill="#F7A519"/>
<path d="M59 20H62.6303L66.3019 28.7209L70.3579 20H74L65.1372 39H61.4892L64.3981 32.8721" fill="#F7A519"/>
</svg>
